<svg xmlns="http://www.w3.org/2000/svg" width="30" height="30" viewBox="0 0 32 32" fill="none">
  <path d="M15.0579 2V5.2C13.5357 5.2 12.0819 5.4656 10.7203 5.928L10.2862 5.0096L11.0292 4.6872L10.3604 3.2248L7.35225 4.5248L8.02109 5.9872L8.78053 5.6592L9.20226 6.544C8.30772 6.98069 7.46688 7.51422 6.69577 8.1344L6.04835 7.4656L6.64717 6.9312L5.53437 5.7504L3.10778 7.916L4.22141 9.0968L4.83259 8.5496L5.49566 9.228C4.70403 10.0434 4.02661 10.9566 3.48091 11.944L2.58968 11.516L2.96034 10.8096L1.49252 10.084L0 12.9376L1.46699 13.6624L1.84342 12.9408L2.78654 13.3968C2.29852 14.6139 2.00626 15.8966 1.92002 17.2H0.231457V22H20V2H15.0579ZM16.7052 3.6H18.3526V17.2H3.5674C3.98995 11.3816 8.95844 6.8 15.0579 6.8H16.7052V3.6ZM11.7631 9.1624C11.4 9.16216 11.047 9.27836 10.7589 9.49296C10.4708 9.70756 10.2637 10.0086 10.1698 10.3492C10.0759 10.6898 10.1005 11.051 10.2396 11.3767C10.3788 11.7025 10.6248 11.9744 10.9394 12.1504V15.6H15.0579V14H12.5868V12.1472C12.9013 11.9715 13.1472 11.6999 13.2863 11.3744C13.4254 11.049 13.4499 10.688 13.3559 10.3477C13.262 10.0073 13.0549 9.70669 12.7668 9.49248C12.4788 9.27827 12.1259 9.16251 11.7631 9.1632V9.1624ZM1.87884 18.8H18.3526V20.4H1.87884V18.8Z" fill="#69EAE2"/>
</svg>