<svg xmlns="http://www.w3.org/2000/svg" width="16" height="18" viewBox="0 0 16 18" fill="none">
  <path d="M13.7325 6.26552L13.8153 6.26665C14.1229 6.29208 14.3587 6.54747 14.375 6.85488L14.3671 7.02629L14.105 10.2357L13.8301 13.3676C13.7719 13.9929 13.7198 14.5202 13.6749 14.9354C13.5187 16.3821 12.5796 17.2768 11.1638 17.3033C8.95781 17.344 6.83731 17.3436 4.7781 17.2991C3.40331 17.2702 2.47805 16.3659 2.32462 14.9412L2.21858 13.8916L2.03328 11.8557L1.84347 9.62156L1.62643 6.93973C1.59946 6.59565 1.84959 6.2943 2.18512 6.26664C2.49269 6.24128 2.76525 6.4547 2.82932 6.75548L2.85426 7.00128L3.05805 9.51543L3.28057 12.1214C3.38038 13.2495 3.46695 14.1625 3.53622 14.8038C3.62365 15.6157 4.05115 16.0335 4.80343 16.0493C6.84654 16.0935 8.95123 16.0939 11.1417 16.0534C11.9398 16.0385 12.374 15.6248 12.4633 14.7976L12.5689 13.7536C12.5998 13.4319 12.6328 13.0767 12.6678 12.6909L12.8905 10.128L13.1588 6.83942C13.1836 6.52402 13.4327 6.28226 13.7325 6.26552ZM1.10949 4.82416C0.772879 4.82416 0.5 4.54432 0.5 4.19913C0.5 3.88271 0.729294 3.6212 1.02679 3.57982L1.10949 3.57411H3.76476C4.0803 3.57411 4.35654 3.3659 4.45535 3.06591L4.47953 2.97328L4.68587 1.92094C4.86759 1.22398 5.45767 0.727748 6.14916 0.67178L6.27993 0.666504H9.7199C10.4229 0.666504 11.0436 1.12173 11.2826 1.82516L11.3228 1.95991L11.5203 2.97303C11.5822 3.29044 11.8354 3.5275 12.1417 3.56798L12.2351 3.57411H14.8905C15.2271 3.57411 15.5 3.85394 15.5 4.19913C15.5 4.51556 15.2707 4.77706 14.9732 4.81845L14.8905 4.82416H1.10949ZM9.7199 1.91655H6.27993C6.10892 1.91655 5.95691 2.01919 5.89377 2.14819L5.87235 2.20487L5.67483 3.21849C5.65067 3.34221 5.61566 3.46134 5.57093 3.57493L10.429 3.57509C10.4011 3.50422 10.377 3.43119 10.3569 3.35624L10.325 3.21824L10.1364 2.24384C10.0923 2.07477 9.95612 1.95099 9.79185 1.92269L9.7199 1.91655Z" fill="#FF7CA3"/>
</svg>