<svg xmlns="http://www.w3.org/2000/svg" width="13" height="13" viewBox="0 0 13 13" fill="none">
  <path d="M3.79159 2.16665C3.79159 1.87933 3.90572 1.60378 4.10889 1.40061C4.31205 1.19745 4.5876 1.08331 4.87492 1.08331H8.12492C8.41224 1.08331 8.68779 1.19745 8.89095 1.40061C9.09412 1.60378 9.20825 1.87933 9.20825 2.16665V3.24998H11.3749C11.5186 3.24998 11.6564 3.30705 11.7579 3.40863C11.8595 3.51021 11.9166 3.64799 11.9166 3.79165C11.9166 3.93531 11.8595 4.07308 11.7579 4.17466C11.6564 4.27624 11.5186 4.33331 11.3749 4.33331H10.7959L10.3263 10.9102C10.3068 11.1835 10.1845 11.4393 9.98398 11.6261C9.78347 11.8128 9.51964 11.9167 9.24563 11.9166H3.75367C3.47966 11.9167 3.21583 11.8128 3.01531 11.6261C2.8148 11.4393 2.6925 11.1835 2.67304 10.9102L2.2045 4.33331H1.62492C1.48126 4.33331 1.34348 4.27624 1.2419 4.17466C1.14032 4.07308 1.08325 3.93531 1.08325 3.79165C1.08325 3.64799 1.14032 3.51021 1.2419 3.40863C1.34348 3.30705 1.48126 3.24998 1.62492 3.24998H3.79159V2.16665ZM4.87492 3.24998H8.12492V2.16665H4.87492V3.24998ZM3.29 4.33331L3.75421 10.8333H9.24617L9.71038 4.33331H3.29Z" fill="#FF0404"/>
</svg>