<svg xmlns="http://www.w3.org/2000/svg" width="13" height="13" viewBox="0 0 13 13" fill="none">
  <g clip-path="url(#clip0_25_1403)">
    <path fill-rule="evenodd" clip-rule="evenodd" d="M7.52697 1.64126C7.71867 1.44953 7.97529 1.33666 8.24616 1.32493C8.51703 1.3132 8.78245 1.40345 8.99001 1.57788L9.0588 1.64126L11.3571 3.93955C11.5487 4.13122 11.6614 4.38773 11.6732 4.65847C11.6849 4.92922 11.5947 5.19452 11.4205 5.40205L11.3571 5.47138L5.77034 11.0581C5.5905 11.238 5.35311 11.3488 5.09976 11.3712L5.00443 11.375H2.16989C2.03511 11.375 1.90507 11.3253 1.80471 11.2353C1.70435 11.1453 1.64073 11.0215 1.62605 10.8875L1.6228 10.8279V7.99338C1.62286 7.73904 1.71241 7.49283 1.87576 7.29788L1.94076 7.22747L7.52697 1.64126ZM6.59205 4.10801L2.70614 7.99392V10.2917H5.00497L8.89089 6.40576L6.59259 4.10747L6.59205 4.10801ZM8.29289 2.40717L7.35797 3.34209L9.65626 5.64038L10.5912 4.70547L8.29289 2.40717Z" fill="#8e918f"/>
  </g>
  <defs>
    <clipPath id="clip0_25_1403">
      <rect width="13" height="13" fill="white"/>
    </clipPath>
  </defs>
</svg>