<svg xmlns="http://www.w3.org/2000/svg" width="123" height="123" viewBox="0 0 123 123" fill="none">
  <path d="M51.6773 85.619L27.9551 61.8912L35.8606 53.9856L51.6773 69.7967L83.2995 38.1689L91.2106 46.0801L51.6773 85.6078V85.619Z" fill="#69EAE2"/>
  <path fill-rule="evenodd" clip-rule="evenodd" d="M0 61.5C0 27.5352 27.5352 0 61.5 0C95.4648 0 123 27.5352 123 61.5C123 95.4648 95.4648 123 61.5 123C27.5352 123 0 95.4648 0 61.5ZM61.5 111.818C54.8921 111.818 48.3489 110.517 42.2441 107.988C36.1392 105.459 30.5921 101.753 25.9197 97.0803C21.2472 92.4078 17.5408 86.8608 15.0121 80.7559C12.4833 74.6511 11.1818 68.1079 11.1818 61.5C11.1818 54.8921 12.4833 48.3489 15.0121 42.2441C17.5408 36.1392 21.2472 30.5921 25.9197 25.9197C30.5921 21.2472 36.1392 17.5408 42.2441 15.0121C48.3489 12.4833 54.8921 11.1818 61.5 11.1818C74.8452 11.1818 87.6438 16.4832 97.0803 25.9197C106.517 35.3562 111.818 48.1548 111.818 61.5C111.818 74.8452 106.517 87.6438 97.0803 97.0803C87.6438 106.517 74.8452 111.818 61.5 111.818Z" fill="#69EAE2"/>
</svg>