<svg xmlns="http://www.w3.org/2000/svg" width="21" height="21" viewBox="0 0 20 20" fill="none">
<g id="Iconly/Light outline/Home">
<g id="Home">
<path id="Vector" d="M7.73031 0.788294C9.00031 -0.220706 10.7803 -0.260706 12.0893 0.668294L12.2503 0.788294L18.3393 5.65929C19.0093 6.17829 19.4203 6.94929 19.4903 7.78829L19.5003 7.98929V16.0983C19.5003 18.1883 17.8493 19.8883 15.7803 19.9983H13.7903C12.8393 19.9793 12.0703 19.2393 12.0003 18.3093L11.9903 18.1683V15.3093C11.9903 14.9983 11.7593 14.7393 11.4503 14.6883L11.3603 14.6783H8.68931C8.37031 14.6883 8.11031 14.9183 8.07031 15.2183L8.06031 15.3093V18.1593C8.06031 18.2183 8.0493 18.2883 8.04031 18.3383L8.0303 18.3593L8.01931 18.4283C7.90031 19.2793 7.2003 19.9283 6.33031 19.9893L6.2003 19.9983H4.41031C2.32031 19.9983 0.610305 18.3593 0.500305 16.2983V7.98929C0.509305 7.13829 0.880305 6.34829 1.50031 5.79829L7.73031 0.788294ZM11.3803 1.87829C10.6203 1.26829 9.54031 1.23929 8.74031 1.76829L8.58931 1.87829L2.50931 6.77929C2.16031 7.03829 1.95031 7.42829 1.90031 7.83829L1.88931 7.99829V16.0983C1.88931 17.4283 2.92931 18.5183 4.25031 18.5983H6.2003C6.4203 18.5983 6.61031 18.4493 6.63931 18.2393L6.66031 18.0593L6.67031 18.0083V15.3093C6.67031 14.2393 7.4903 13.3693 8.54031 13.2883H11.3603C12.4293 13.2883 13.2993 14.1093 13.3803 15.1593V18.1683C13.3803 18.3783 13.5303 18.5593 13.7303 18.5983H15.5893C16.9293 18.5983 18.0193 17.5693 18.0993 16.2583L18.1103 16.0983V7.99829C18.0993 7.56929 17.9203 7.16829 17.6103 6.86929L17.4803 6.75829L11.3803 1.87829Z" fill="#69EAE2"/>
</g>
</g>
</svg>