<svg xmlns="http://www.w3.org/2000/svg" width="21" height="21" viewBox="0 0 20 20" fill="none">
  <path d="M12.5 13.125H7.5C7.16848 13.125 6.85054 12.9933 6.61612 12.7589C6.3817 12.5245 6.25 12.2065 6.25 11.875V10.625C6.25 10.2935 6.3817 9.97554 6.61612 9.74112C6.85054 9.5067 7.16848 9.375 7.5 9.375H12.5C12.8315 9.375 13.1495 9.5067 13.3839 9.74112C13.6183 9.97554 13.75 10.2935 13.75 10.625V11.875C13.75 12.2065 13.6183 12.5245 13.3839 12.7589C13.1495 12.9933 12.8315 13.125 12.5 13.125ZM7.5 10.625V11.875H12.5V10.625H7.5Z" fill="#69EAE2"/>
  <path d="M17.5 2.5H2.5C2.16848 2.5 1.85054 2.6317 1.61612 2.86612C1.3817 3.10054 1.25 3.41848 1.25 3.75V6.25C1.25 6.58152 1.3817 6.89946 1.61612 7.13388C1.85054 7.3683 2.16848 7.5 2.5 7.5V17.5C2.5 17.8315 2.6317 18.1495 2.86612 18.3839C3.10054 18.6183 3.41848 18.75 3.75 18.75H16.25C16.5815 18.75 16.8995 18.6183 17.1339 18.3839C17.3683 18.1495 17.5 17.8315 17.5 17.5V7.5C17.8315 7.5 18.1495 7.3683 18.3839 7.13388C18.6183 6.89946 18.75 6.58152 18.75 6.25V3.75C18.75 3.41848 18.6183 3.10054 18.3839 2.86612C18.1495 2.6317 17.8315 2.5 17.5 2.5ZM16.25 17.5H3.75V7.5H16.25V17.5ZM17.5 6.25H2.5V3.75H17.5V6.25Z" fill="#69EAE2"/>
</svg>