<svg xmlns="http://www.w3.org/2000/svg" width="38" height="38" viewBox="0 0 38 38" fill="none">
  <path fill-rule="evenodd" clip-rule="evenodd" d="M6.14286 1H31.8571C33.2211 1 34.5292 1.54184 35.4937 2.50631C36.4582 3.47078 37 4.77889 37 6.14286V31.8571C37 33.2211 36.4582 34.5292 35.4937 35.4937C34.5292 36.4582 33.2211 37 31.8571 37H6.14286C4.77889 37 3.47078 36.4582 2.50631 35.4937C1.54184 34.5292 1 33.2211 1 31.8571V6.14286C1 4.77889 1.54184 3.47078 2.50631 2.50631C3.47078 1.54184 4.77889 1 6.14286 1Z" stroke="#ABBBC2" stroke-linecap="round" stroke-linejoin="round"/>
  <path d="M37 26.7146L29.2857 19.0003L21.5714 26.676M31.8571 37.0003L8.71429 13.8574L1 21.5717" stroke="#ABBBC2" stroke-linecap="round" stroke-linejoin="round"/>
  <path d="M27.9999 12.5716C29.4201 12.5716 30.5713 11.4203 30.5713 10.0001C30.5713 8.57998 29.4201 7.42871 27.9999 7.42871C26.5797 7.42871 25.4285 8.57998 25.4285 10.0001C25.4285 11.4203 26.5797 12.5716 27.9999 12.5716Z" fill="#ABBBC2"/>
</svg>