<svg xmlns="http://www.w3.org/2000/svg" width="23" height="23" viewBox="0 0 30 30" fill="none">
  <path d="M12.6043 20.8828L6.81836 15.0955L8.74654 13.1673L12.6043 17.0237L20.317 9.30957L22.2465 11.2391L12.6043 20.88V20.8828Z" fill="#69EAE2"/>
  <path fill-rule="evenodd" clip-rule="evenodd" d="M0 15C0 6.71591 6.71591 0 15 0C23.2841 0 30 6.71591 30 15C30 23.2841 23.2841 30 15 30C6.71591 30 0 23.2841 0 15ZM15 27.2727C13.3883 27.2727 11.7924 26.9553 10.3034 26.3385C8.81444 25.7218 7.4615 24.8178 6.32187 23.6781C5.18224 22.5385 4.27824 21.1856 3.66148 19.6966C3.04472 18.2076 2.72727 16.6117 2.72727 15C2.72727 13.3883 3.04472 11.7924 3.66148 10.3034C4.27824 8.81444 5.18224 7.4615 6.32187 6.32187C7.4615 5.18224 8.81444 4.27824 10.3034 3.66148C11.7924 3.04472 13.3883 2.72727 15 2.72727C18.2549 2.72727 21.3765 4.02029 23.6781 6.32187C25.9797 8.62345 27.2727 11.7451 27.2727 15C27.2727 18.2549 25.9797 21.3765 23.6781 23.6781C21.3765 25.9797 18.2549 27.2727 15 27.2727Z" fill="#69EAE2"/>
</svg>