<svg xmlns="http://www.w3.org/2000/svg" width="22" height="22" viewBox="0 0 22 22" fill="none">
  <g clip-path="url(#clip0_20_851)">
    <path fill-rule="evenodd" clip-rule="evenodd" d="M15.3214 1.17857C15.3214 0.865995 15.4456 0.566221 15.6666 0.345196C15.8876 0.124171 16.1874 0 16.5 0L19.25 0C20.768 0 22 1.232 22 2.75V5.5C22 5.81258 21.8758 6.11235 21.6548 6.33338C21.4338 6.5544 21.134 6.67857 20.8214 6.67857C20.5089 6.67857 20.2091 6.5544 19.9881 6.33338C19.767 6.11235 19.6429 5.81258 19.6429 5.5V2.75C19.6429 2.64581 19.6015 2.54588 19.5278 2.47221C19.4541 2.39853 19.3542 2.35714 19.25 2.35714H16.5C16.1874 2.35714 15.8876 2.23297 15.6666 2.01195C15.4456 1.79092 15.3214 1.49115 15.3214 1.17857ZM0 11C0 10.6874 0.124171 10.3876 0.345196 10.1666C0.566221 9.9456 0.865995 9.82143 1.17857 9.82143H20.8214C21.134 9.82143 21.4338 9.9456 21.6548 10.1666C21.8758 10.3876 22 10.6874 22 11C22 11.3126 21.8758 11.6124 21.6548 11.8334C21.4338 12.0544 21.134 12.1786 20.8214 12.1786H1.17857C0.865995 12.1786 0.566221 12.0544 0.345196 11.8334C0.124171 11.6124 0 11.3126 0 11ZM2.35714 2.75C2.35714 2.64581 2.39853 2.54588 2.47221 2.47221C2.54588 2.39853 2.64581 2.35714 2.75 2.35714H5.5C5.81258 2.35714 6.11235 2.23297 6.33338 2.01195C6.5544 1.79092 6.67857 1.49115 6.67857 1.17857C6.67857 0.865995 6.5544 0.566221 6.33338 0.345196C6.11235 0.124171 5.81258 0 5.5 0L2.75 0C2.02065 0 1.32118 0.289731 0.805456 0.805456C0.289731 1.32118 0 2.02065 0 2.75L0 5.5C0 5.81258 0.124171 6.11235 0.345196 6.33338C0.566221 6.5544 0.865995 6.67857 1.17857 6.67857C1.49115 6.67857 1.79092 6.5544 2.01195 6.33338C2.23297 6.11235 2.35714 5.81258 2.35714 5.5V2.75ZM20.8214 15.3214C21.134 15.3214 21.4338 15.4456 21.6548 15.6666C21.8758 15.8876 22 16.1874 22 16.5V19.25C22 19.9793 21.7103 20.6788 21.1945 21.1945C20.6788 21.7103 19.9793 22 19.25 22H16.5C16.1874 22 15.8876 21.8758 15.6666 21.6548C15.4456 21.4338 15.3214 21.134 15.3214 20.8214C15.3214 20.5089 15.4456 20.2091 15.6666 19.9881C15.8876 19.767 16.1874 19.6429 16.5 19.6429H19.25C19.3542 19.6429 19.4541 19.6015 19.5278 19.5278C19.6015 19.4541 19.6429 19.3542 19.6429 19.25V16.5C19.6429 16.1874 19.767 15.8876 19.9881 15.6666C20.2091 15.4456 20.5089 15.3214 20.8214 15.3214ZM2.35714 16.5C2.35714 16.1874 2.23297 15.8876 2.01195 15.6666C1.79092 15.4456 1.49115 15.3214 1.17857 15.3214C0.865995 15.3214 0.566221 15.4456 0.345196 15.6666C0.124171 15.8876 0 16.1874 0 16.5L0 19.25C0 20.768 1.232 22 2.75 22H5.5C5.81258 22 6.11235 21.8758 6.33338 21.6548C6.5544 21.4338 6.67857 21.134 6.67857 20.8214C6.67857 20.5089 6.5544 20.2091 6.33338 19.9881C6.11235 19.767 5.81258 19.6429 5.5 19.6429H2.75C2.64581 19.6429 2.54588 19.6015 2.47221 19.5278C2.39853 19.4541 2.35714 19.3542 2.35714 19.25V16.5Z" fill="#69EAE2"/>
  </g>
  <defs>
    <clipPath id="clip0_20_851">
      <rect width="22" height="22" fill="white"/>
    </clipPath>
  </defs>
</svg>