<svg width="36" height="60" viewBox="0 0 36 60" fill="none" xmlns="http://www.w3.org/2000/svg">
<g filter="url(#filter0_dd_855_331)">
<mask id="path-1-inside-1_855_331" fill="white">
<path d="M28.6961 7.58985C30.2273 8.20701 29.6148 12.7329 28.7983 13.6079C28.39 13.9673 26.3485 12.7469 23.0822 11.91C21.2959 11.4524 20.6657 11.2242 18.0807 11.0871C16.1414 10.9843 15.5289 11.19 13.8958 11.8072C12.8751 12.4243 12.5222 12.6971 11.9564 13.9673C11.4996 15.1041 11.4461 16.0245 11.6502 17.6703C12.1606 19.1103 12.5688 19.592 14.4061 20.5504C18.1615 22.5095 20.6331 23.3859 25.9402 25.6935C27.5734 26.4037 28.0838 26.7221 29.6148 28.2651C30.7862 29.5992 31.0438 30.4252 31.6562 32.5853C31.957 34.4991 32.0646 34.7454 31.9625 37.1112C31.8585 39.5218 31.1913 40.6914 29.819 42.2543C27.867 44.3857 28 44.5 24.5 46C23.0066 46.64 22.9801 46.7802 20.9697 46.8853C21.2945 48.8939 20.9387 51.3061 20.5304 51.6147C20.1222 51.9233 17.2818 52.3001 15.6309 51.6147C14.9824 51.3455 14.7597 48.6689 15.4268 46.7802C11.2589 46.2312 5.43094 44.504 5.01546 43.5915C4.44277 42.3338 4.81139 37.9635 5.62797 37.7284C6.75076 37.4051 9.60877 38.3455 13.5895 39.5799C15.3151 39.9756 15.9371 39.9913 18.6931 39.9913C20.6324 39.7856 21.5868 39.6193 22.9801 38.6541C23.6662 37.7853 24.0002 37.2601 24.0008 35.8768C23.8298 34.131 23 32.5 21.7552 31.8652C21.5 31.5 14.4061 28.9851 8.38382 25.6935C6.2986 24.3788 5.39543 23.2259 4.30095 20.3447C3.91096 18.1664 3.88856 16.7273 4.30095 13.6587C5.08279 10.3907 6.01876 9.10748 8.38382 7.58985C10.4119 6.04671 11.9183 5.56125 15.0185 5.12117C14.4068 3.06883 15.5835 0.783079 16.0392 0.389524C16.7538 -0.227657 19.5097 -0.0219376 20.02 0.389524C20.7346 0.800957 21.2253 3.32019 20.6324 5.12117L24.8175 6.14977L28.6961 7.58985Z"/>
</mask>
<path d="M28.7983 13.6079L42.0123 28.6209L42.7497 27.9718L43.42 27.2536L28.7983 13.6079ZM28.6961 7.58985L36.1729 -10.96L35.9166 -11.0633L35.6574 -11.1595L28.6961 7.58985ZM20.6324 5.12117L1.63528 -1.13247L-5.11949 19.387L15.8589 24.5431L20.6324 5.12117ZM20.02 0.389524L7.46593 15.9586L8.68428 16.941L10.0406 17.7219L20.02 0.389524ZM16.0392 0.389524L29.1121 15.5256L29.1121 15.5256L16.0392 0.389524ZM15.0185 5.12117L17.8293 24.9227L40.8168 21.6595L34.1854 -0.591186L15.0185 5.12117ZM8.38382 7.58985L19.185 24.4224L19.8581 23.9905L20.4945 23.5063L8.38382 7.58985ZM4.30095 13.6587L-15.1502 9.00526L-15.3859 9.99066L-15.5209 10.9948L4.30095 13.6587ZM4.30095 20.3447L-15.386 23.8693L-15.0575 25.7043L-14.3955 27.4469L4.30095 20.3447ZM8.38382 25.6935L-2.28273 42.6117L-1.75537 42.9442L-1.20831 43.2432L8.38382 25.6935ZM21.7552 31.8652L5.36139 43.3213L8.2214 47.4141L12.6694 49.6823L21.7552 31.8652ZM24.0008 35.8768L44.0008 35.885L44.0012 34.9036L43.9055 33.9269L24.0008 35.8768ZM22.9801 38.6541L34.3693 55.0945L36.8244 53.3937L38.6755 51.0499L22.9801 38.6541ZM18.6931 39.9913V59.9913H19.7509L20.8028 59.8797L18.6931 39.9913ZM13.5895 39.5799L7.66612 58.6826L8.38511 58.9055L9.11884 59.0738L13.5895 39.5799ZM5.62797 37.7284L0.0941348 18.5092L0.0941272 18.5092L5.62797 37.7284ZM5.01546 43.5915L23.2174 35.3035L23.2173 35.3035L5.01546 43.5915ZM15.4268 46.7802L34.2851 53.4408L42.5029 30.1737L18.0385 26.9515L15.4268 46.7802ZM15.6309 51.6147L7.96205 70.086L7.96208 70.086L15.6309 51.6147ZM20.5304 51.6147L32.5896 67.5702L32.5897 67.5701L20.5304 51.6147ZM20.9697 46.8853L19.9261 26.9125L-2.33115 28.0755L1.22608 50.0774L20.9697 46.8853ZM24.5 46L16.6216 27.6171L16.6216 27.6171L24.5 46ZM29.819 42.2543L44.5683 55.7619L44.7094 55.6078L44.8473 55.4509L29.819 42.2543ZM31.9625 37.1112L11.9811 36.2491L11.9811 36.2491L31.9625 37.1112ZM31.6562 32.5853L51.4137 29.48L51.2266 28.2898L50.898 27.1306L31.6562 32.5853ZM29.6148 28.2651L44.6438 15.0693L44.2414 14.611L43.8117 14.178L29.6148 28.2651ZM25.9402 25.6935L17.9651 44.0347L17.9651 44.0347L25.9402 25.6935ZM14.4061 20.5504L23.6564 2.81822L23.6564 2.81822L14.4061 20.5504ZM11.6502 17.6703L-8.19782 20.1312L-7.9294 22.2961L-7.2006 24.3521L11.6502 17.6703ZM11.9564 13.9673L-6.31296 5.8291L-6.46356 6.16717L-6.60154 6.51057L11.9564 13.9673ZM13.8958 11.8072L6.82573 -6.9015L5.11367 -6.25451L3.54748 -5.30752L13.8958 11.8072ZM18.0807 11.0871L19.14 -8.88479L19.14 -8.88479L18.0807 11.0871ZM23.0822 11.91L28.0458 -7.46421L28.0458 -7.46422L23.0822 11.91ZM24.8175 6.14977L31.7788 -12.5996L30.7042 -12.9986L29.591 -13.2722L24.8175 6.14977ZM43.42 27.2536C47.2586 23.1405 48.4317 18.4213 48.6686 17.5317C49.1962 15.5503 49.5069 13.479 49.6042 11.469C49.693 9.63491 49.6682 6.65875 48.7491 3.33587C48.0236 0.713003 45.266 -7.29489 36.1729 -10.96L21.2193 26.1397C12.8918 22.7832 10.6318 15.5725 10.1966 13.9991C9.56782 11.7258 9.62599 10.0515 9.65096 9.53543C9.68445 8.84343 9.78462 8.10618 10.0156 7.23877C10.1323 6.80063 10.3615 6.03002 10.7873 5.06301C11.0986 4.35615 12.0803 2.20841 14.1766 -0.0378227L43.42 27.2536ZM39.6296 11.3748C41.1546 6.74217 41.0645 2.35153 40.589 -0.773881C40.3358 -2.43786 39.8538 -4.55108 38.9009 -6.78834C38.334 -8.11933 36.0192 -13.4769 29.9994 -16.9429L10.0406 17.7219C6.87717 15.9005 4.99398 13.6383 4.05664 12.3392C3.04723 10.9401 2.44275 9.69095 2.10016 8.88665C1.42168 7.29375 1.15929 6.00004 1.04403 5.24242C0.844321 3.92973 0.70313 1.69919 1.63528 -1.13247L39.6296 11.3748ZM32.5741 -15.1795C29.8648 -17.3642 27.2331 -18.3192 26.3176 -18.6385C25.0546 -19.0789 23.9441 -19.3364 23.1639 -19.4908C21.5863 -19.8028 20.0621 -19.9458 18.7167 -19.9869C17.407 -20.0269 15.6134 -19.9913 13.6062 -19.6571C12.4625 -19.4667 7.50448 -18.6661 2.96632 -14.7465L29.1121 15.5256C26.733 17.5803 24.4306 18.5545 23.2298 18.9912C21.9102 19.4711 20.8232 19.6919 20.1756 19.7997C18.9021 20.0117 17.9633 20.0087 17.4958 19.9945C16.9924 19.9791 16.2976 19.9261 15.4026 19.7491C14.9637 19.6622 14.1577 19.4835 13.1459 19.1306C12.4816 18.899 10.0477 18.0404 7.46593 15.9586L32.5741 -15.1795ZM2.96633 -14.7465C0.0433166 -12.2219 -1.50737 -9.39272 -1.94974 -8.58306C-2.7405 -7.13574 -3.42641 -5.53939 -3.95751 -3.84334C-4.92581 -0.751121 -5.98863 4.65887 -4.14838 10.8335L34.1854 -0.591186C35.4139 3.53113 34.6337 6.77208 34.2147 8.10995C33.9583 8.92882 33.6138 9.75167 33.1527 10.5956C32.9216 11.0185 32.5799 11.5959 32.1008 12.265C31.7525 12.7515 30.7615 14.1009 29.1121 15.5256L2.96633 -14.7465ZM12.2076 -14.6803C10.2637 -14.4044 7.47277 -13.9457 4.47695 -12.8586C1.15919 -11.6547 -1.48546 -10.032 -3.72681 -8.32657L20.4945 23.5063C20.4546 23.5366 20.1765 23.7453 19.7088 24.0106C19.2122 24.2924 18.6686 24.5437 18.1212 24.7423C17.6039 24.9301 17.249 25.0102 17.1815 25.0248C17.1448 25.0327 17.3041 24.9972 17.8293 24.9227L12.2076 -14.6803ZM-2.41739 -9.24267C-4.73876 -7.75308 -8.02512 -5.32841 -10.7695 -1.30818C-13.386 2.52467 -14.5201 6.37184 -15.1502 9.00526L23.7521 18.3121C23.9039 17.6775 23.6286 19.2491 22.2669 21.2439C20.7772 23.4262 19.1413 24.4504 19.185 24.4224L-2.41739 -9.24267ZM-15.5209 10.9948C-16.1372 15.5809 -16.2268 19.1728 -15.386 23.8693L23.9879 16.8201C23.9513 16.6155 23.959 16.6259 23.9727 16.7589C23.9797 16.8267 23.9869 16.9127 23.9922 17.0111C23.9975 17.1096 23.9998 17.2011 24 17.2804C24.0004 17.4422 23.992 17.4857 24.0037 17.3446C24.0168 17.1866 24.0482 16.877 24.1228 16.3226L-15.5209 10.9948ZM-14.3955 27.4469C-13.5757 29.605 -12.256 32.7047 -9.89963 35.7773C-7.35872 39.0907 -4.53386 41.1924 -2.28273 42.6117L19.0504 8.77536C19.2163 8.87996 20.5469 9.74793 21.8413 11.4358C22.9512 12.883 23.2721 13.9656 22.9975 13.2425L-14.3955 27.4469ZM-1.20831 43.2432C2.69263 45.3753 6.70513 47.1356 9.41786 48.287C10.1146 48.5827 10.755 48.8505 11.2914 49.0746C11.8556 49.3102 12.2511 49.4753 12.5692 49.6108C12.9437 49.7702 12.9171 49.7647 12.7208 49.6707C12.6549 49.6392 12.1851 49.4164 11.5629 49.054C11.262 48.8787 10.6131 48.4911 9.83308 47.9152C9.43275 47.6197 8.83451 47.155 8.15584 46.5271C7.53243 45.9503 6.44915 44.8779 5.36139 43.3213L38.1491 20.4091C36.2224 17.652 34.0533 16.0763 33.5899 15.7343C32.7677 15.1273 32.0638 14.7044 31.6954 14.4898C30.9383 14.0488 30.284 13.7313 29.9881 13.5897C29.3314 13.2754 28.6616 12.9877 28.2411 12.8087C27.7641 12.6056 27.2127 12.3756 26.7089 12.1652C26.1773 11.9431 25.6288 11.7137 25.0464 11.4665C22.6428 10.4463 20.0973 9.3033 17.976 8.14387L-1.20831 43.2432ZM12.6694 49.6823C8.76423 47.6909 6.69179 44.8094 5.71958 43.0256C4.69721 41.1498 4.24628 39.3599 4.09609 37.8267L43.9055 33.9269C43.3905 28.6693 40.6054 19.0275 30.841 14.0481L12.6694 49.6823ZM4.00081 35.8687C4.00119 34.9199 4.11755 32.6137 5.24391 29.8679C6.24009 27.4395 7.59253 25.8686 7.28471 26.2584L38.6755 51.0499C39.0538 50.5708 40.9163 48.3029 42.2512 45.0489C43.7162 41.4775 43.9999 38.2171 44.0008 35.885L4.00081 35.8687ZM11.5909 22.2137C11.9046 21.9964 12.4526 21.6449 13.2023 21.2779C13.9818 20.8963 14.772 20.5993 15.5268 20.3828C16.2343 20.1799 16.7535 20.0934 16.9174 20.068C17.0384 20.0492 17.0172 20.0569 16.5833 20.1029L20.8028 59.8797C21.6726 59.7875 24.0155 59.5609 26.5559 58.8322C29.6229 57.9525 32.1701 56.618 34.3693 55.0945L11.5909 22.2137ZM18.6931 19.9913C18.3528 19.9913 18.0772 19.9911 17.8379 19.99C17.599 19.989 17.4278 19.9874 17.2994 19.9853C17.0311 19.981 17.0652 19.9762 17.2428 19.9894C17.3412 19.9968 17.4673 20.0083 17.6126 20.0257C17.7584 20.0431 17.8911 20.0626 18.0033 20.0812C18.2123 20.1159 18.2824 20.1369 18.0601 20.0859L9.11884 59.0738C13.1423 59.9965 15.6324 59.9913 18.6931 59.9913V19.9913ZM19.5129 20.4772C17.856 19.9634 15.49 19.2091 13.5343 18.7044C12.5218 18.4431 11.0068 18.0832 9.30611 17.8671C8.06026 17.7089 4.37496 17.2766 0.0941348 18.5092L11.1618 56.9475C9.0822 57.5463 7.37128 57.6485 6.42007 57.6624C5.41386 57.677 4.65431 57.5976 4.26558 57.5483C3.54096 57.4562 3.19978 57.3479 3.53972 57.4356C3.80548 57.5042 4.2541 57.6311 5.0124 57.8614C5.78361 58.0956 6.57868 58.3454 7.66612 58.6826L19.5129 20.4772ZM0.0941272 18.5092C-7.40522 20.6685 -10.8974 26.1992 -11.7834 27.6684C-13.0658 29.7952 -13.7188 31.7314 -14.0297 32.7549C-14.694 34.9424 -14.9747 36.9782 -15.108 38.3677C-15.2523 39.8733 -15.3113 41.5675 -15.2137 43.3016C-15.1555 44.3349 -14.9554 47.9947 -13.1864 51.8795L23.2173 35.3035C24.1071 37.2576 24.4215 38.8542 24.5293 39.455C24.6649 40.2102 24.7072 40.7717 24.7231 41.0541C24.7543 41.6077 24.7312 41.9588 24.7094 42.1852C24.6989 42.2956 24.6276 43.1161 24.2442 44.3787C24.0738 44.9398 23.579 46.4862 22.4708 48.324C21.7591 49.5043 18.457 54.847 11.1618 56.9475L0.0941272 18.5092ZM-13.1864 51.8795C-10.5858 57.591 -6.06938 60.3569 -5.54018 60.7032C-4.08415 61.656 -2.73789 62.2961 -1.91606 62.6627C-0.184082 63.4353 1.58943 64.0315 3.0192 64.4643C5.91802 65.3418 9.48888 66.1708 12.8151 66.6089L18.0385 26.9515C17.1968 26.8406 15.7697 26.5315 14.6087 26.18C14.0086 25.9984 13.9867 25.9573 14.3788 26.1322C14.5308 26.2 15.321 26.5512 16.3625 27.2327C16.8903 27.5781 17.8344 28.2355 18.8966 29.24C19.8327 30.1252 21.7682 32.1208 23.2174 35.3035L-13.1864 51.8795ZM-3.43153 40.1196C-4.83102 44.0819 -5.10131 47.9653 -4.93227 50.9396C-4.84644 52.4498 -4.59871 54.6586 -3.82039 57.0958C-3.43638 58.2982 -2.71237 60.2309 -1.35041 62.3221C-0.100713 64.2409 2.74634 67.9205 7.96205 70.086L23.2998 33.1434C28.3534 35.2416 31.0516 38.7787 32.1676 40.4922C33.3959 42.3781 34.0013 44.0427 34.2837 44.9269C34.8587 46.7274 34.9708 48.0986 35.0033 48.6699C35.0656 49.7664 35.0175 51.3672 34.2851 53.4408L-3.43153 40.1196ZM7.96208 70.086C12.8602 72.1196 17.5028 72.062 19.5192 71.9638C20.8377 71.8996 22.2435 71.7458 23.6451 71.473C24.3284 71.34 25.2901 71.1251 26.3815 70.7749C26.9041 70.6072 29.7097 69.7468 32.5896 67.5702L8.47133 35.6592C10.1043 34.425 11.559 33.7302 12.251 33.4203C13.0574 33.0591 13.73 32.8257 14.1593 32.6879C15.0107 32.4147 15.6707 32.2745 16.0045 32.2095C16.7071 32.0728 17.2231 32.0282 17.5741 32.0111C17.9381 31.9934 18.5019 31.9869 19.2498 32.0702C19.8941 32.142 21.4036 32.3562 23.2998 33.1434L7.96208 70.086ZM32.5897 67.5701C36.4646 64.6414 38.2008 61.1118 38.6786 60.1257C39.4015 58.6336 39.8199 57.3216 40.0523 56.5054C40.5314 54.8229 40.7718 53.2716 40.9022 52.1001C41.1608 49.7767 41.2184 46.8171 40.7133 43.6931L1.22608 50.0774C1.04575 48.962 1.08784 48.2129 1.14773 47.6749C1.17877 47.3961 1.27394 46.6313 1.58165 45.5506C1.7284 45.0353 2.05455 43.9781 2.68115 42.6848C3.00232 42.0219 3.52276 41.0459 4.30439 39.9462C5.0437 38.906 6.37721 37.242 8.47123 35.6593L32.5897 67.5701ZM22.0133 66.858C23.1299 66.7997 25.6397 66.6763 28.4691 65.8605C29.8624 65.4588 30.9465 65.0054 31.4957 64.7695C31.7433 64.6631 32.0033 64.5475 32.094 64.5074C32.2244 64.4497 32.3021 64.4156 32.3784 64.3829L16.6216 27.6171C16.3246 27.7444 16.0747 27.8547 15.9101 27.9276C15.7056 28.018 15.7028 28.0192 15.7065 28.0176C15.7678 27.9913 16.4397 27.6994 17.3884 27.4259C18.3921 27.1366 19.2226 27.0031 19.72 26.9419C20.1057 26.8946 20.2728 26.8944 19.9261 26.9125L22.0133 66.858ZM32.3784 64.3829C33.752 63.7942 36.8232 62.5351 39.6816 60.4075C41.272 59.2238 42.4272 58.0717 43.1669 57.2919C43.6054 56.8296 44.4966 55.8402 44.5683 55.7619L15.0696 28.7466C14.7712 29.0724 14.4932 29.3811 14.3419 29.5484C14.1528 29.7575 14.1253 29.7858 14.1463 29.7637C14.2525 29.6517 14.8563 29.0215 15.7984 28.3203C16.7153 27.6378 17.4432 27.2659 17.5931 27.191C17.6561 27.1595 17.6267 27.1761 17.4447 27.258C17.2647 27.339 17.0067 27.4521 16.6216 27.6171L32.3784 64.3829ZM44.8473 55.4509C46.0276 54.1067 48.0745 51.6454 49.6372 48.1355C51.273 44.4615 51.8154 40.9513 51.9439 37.9733L11.9811 36.2491C12.0056 35.6817 12.1624 33.9616 13.0955 31.8658C13.9556 29.9341 14.9827 28.839 14.7907 29.0577L44.8473 55.4509ZM51.9439 37.9733C52.0047 36.5631 52.052 34.8694 51.8856 32.9507C51.8053 32.0244 51.6937 31.251 51.6114 30.7175C51.5723 30.4642 51.5313 30.2114 51.5022 30.0321C51.4699 29.8326 51.4427 29.6649 51.4137 29.48L11.8987 35.6905C11.9449 35.9841 11.9868 36.2427 12.0176 36.4323C12.0516 36.642 12.0675 36.7409 12.0792 36.8169C12.0984 36.9417 12.0638 36.7366 12.0352 36.4068C12.021 36.2432 12.0116 36.0887 12.006 35.9512C12.0007 35.8184 12 35.7288 12 35.6974C12 35.6696 12.0004 35.6934 11.9979 35.7893C11.9954 35.8859 11.9904 36.0325 11.9811 36.2491L51.9439 37.9733ZM50.898 27.1306C50.6876 26.3886 50.0931 24.1677 49.1056 21.9573C47.8338 19.1107 46.2549 16.9042 44.6438 15.0693L14.5857 41.4608C14.4455 41.3012 14.0953 40.8872 13.6817 40.2645C13.2415 39.6017 12.8737 38.9206 12.5846 38.2736C12.3234 37.6887 12.1961 37.2851 12.194 37.2785C12.1915 37.2708 12.2065 37.3176 12.2473 37.4566C12.2888 37.5983 12.3394 37.7753 12.4144 38.0399L50.898 27.1306ZM43.8117 14.178C42.8951 13.2543 41.308 11.6789 39.1806 10.2098C36.9528 8.67129 34.8925 7.77729 33.9152 7.35237L17.9651 44.0347C18.6211 44.3199 17.6326 43.9402 16.451 43.1243C15.8828 42.7319 15.4843 42.392 15.2985 42.226C15.1541 42.097 15.1523 42.0846 15.4178 42.3522L43.8117 14.178ZM33.9153 7.35238C27.5301 4.57601 26.582 4.34445 23.6564 2.81822L5.15574 38.2827C9.74098 40.6746 13.7361 42.1958 17.9651 44.0347L33.9153 7.35238ZM23.6564 2.81822C22.9732 2.46184 25.0223 3.38186 27.0946 5.58372C29.5839 8.22859 30.4751 10.9153 30.501 10.9884L-7.2006 24.3521C-6.66424 25.8653 -5.31373 29.5129 -2.03343 32.9983C0.829914 36.0406 4.00169 37.6806 5.15575 38.2827L23.6564 2.81822ZM31.4982 15.2094C31.4627 14.9228 31.602 15.8067 31.4952 17.1792C31.3651 18.8513 30.956 20.3248 30.5144 21.424L-6.60154 6.51057C-8.79888 11.9792 -8.62601 16.6777 -8.19782 20.1312L31.4982 15.2094ZM30.2258 22.1054C30.167 22.2374 29.3044 24.243 27.3122 26.3574C25.4911 28.2902 23.5935 29.3152 24.2441 28.9219L3.54748 -5.30752C3.17732 -5.0837 0.592911 -3.61372 -1.8012 -1.07268C-4.36642 1.64995 -5.6884 4.42702 -6.31296 5.8291L30.2258 22.1054ZM20.9658 30.5158C21.413 30.3469 21.3717 30.3669 21.2191 30.4171C20.9782 30.4964 20.4196 30.6688 19.6629 30.8149C18.0084 31.1341 16.833 31.0491 17.0214 31.0591L19.14 -8.88479C17.3891 -8.97765 14.9378 -9.01128 12.0839 -8.46056C9.53349 -7.9684 7.39734 -7.11751 6.82573 -6.9015L20.9658 30.5158ZM17.0214 31.0591C17.2214 31.0697 17.3627 31.0791 17.4579 31.0863C17.5523 31.0934 17.5925 31.0977 17.5904 31.0975C17.5633 31.0946 17.4181 31.0774 17.2116 31.0389C17.0196 31.0031 16.9192 30.9753 17.0484 31.0076C17.1264 31.0272 17.229 31.0536 17.4218 31.1038C17.5938 31.1486 17.8476 31.2149 18.1185 31.2843L28.0458 -7.46422C27.7497 -7.54009 26.1127 -7.99052 24.5504 -8.28211C22.6764 -8.63186 20.9274 -8.78999 19.14 -8.88479L17.0214 31.0591ZM18.1185 31.2843C18.5272 31.389 18.8536 31.5068 19.9701 31.9269C20.1782 32.0051 21.6582 32.5832 23.2205 32.9841C23.9843 33.1801 25.9444 33.657 28.4486 33.6721C30.6905 33.6856 36.6287 33.3594 42.0123 28.6209L15.5842 -1.40505C20.8658 -6.05377 26.6509 -6.33951 28.6902 -6.32718C30.9919 -6.31328 32.7 -5.87936 33.1639 -5.76029C34.1265 -5.51325 34.8155 -5.22522 34.0538 -5.51175C33.231 -5.8213 30.9035 -6.73207 28.0458 -7.46421L18.1185 31.2843ZM35.6574 -11.1595L31.7788 -12.5996L17.8561 24.8992L21.7348 26.3392L35.6574 -11.1595ZM29.591 -13.2722L25.406 -14.3008L15.8589 24.5431L20.0439 25.5717L29.591 -13.2722Z" fill="#61C897" mask="url(#path-1-inside-1_855_331)"/>
</g>
<defs>
<filter id="filter0_dd_855_331" x="0" y="0" width="36" height="60" filterUnits="userSpaceOnUse" color-interpolation-filters="sRGB">
<feFlood flood-opacity="0" result="BackgroundImageFix"/>
<feColorMatrix in="SourceAlpha" type="matrix" values="0 0 0 0 0 0 0 0 0 0 0 0 0 0 0 0 0 0 127 0" result="hardAlpha"/>
<feOffset dy="4"/>
<feGaussianBlur stdDeviation="2"/>
<feComposite in2="hardAlpha" operator="out"/>
<feColorMatrix type="matrix" values="0 0 0 0 0 0 0 0 0 0 0 0 0 0 0 0 0 0 0.25 0"/>
<feBlend mode="normal" in2="BackgroundImageFix" result="effect1_dropShadow_855_331"/>
<feColorMatrix in="SourceAlpha" type="matrix" values="0 0 0 0 0 0 0 0 0 0 0 0 0 0 0 0 0 0 127 0" result="hardAlpha"/>
<feOffset dy="4"/>
<feGaussianBlur stdDeviation="2"/>
<feComposite in2="hardAlpha" operator="out"/>
<feColorMatrix type="matrix" values="0 0 0 0 0 0 0 0 0 0 0 0 0 0 0 0 0 0 0.25 0"/>
<feBlend mode="normal" in2="effect1_dropShadow_855_331" result="effect2_dropShadow_855_331"/>
<feBlend mode="normal" in="SourceGraphic" in2="effect2_dropShadow_855_331" result="shape"/>
</filter>
</defs>
</svg>
